<?xml version="1.0" encoding="UTF-8" standalone="no"?>
<svg
   xmlns:dc="http://purl.org/dc/elements/1.1/"
   xmlns:cc="http://creativecommons.org/ns#"
   xmlns:rdf="http://www.w3.org/1999/02/22-rdf-syntax-ns#"
   xmlns:svg="http://www.w3.org/2000/svg"
   xmlns="http://www.w3.org/2000/svg"
   xmlns:sodipodi="http://sodipodi.sourceforge.net/DTD/sodipodi-0.dtd"
   xmlns:inkscape="http://www.inkscape.org/namespaces/inkscape"
   width="500"
   height="500"
   viewBox="0 0 500 500"
   version="1.1"
   id="svg3088"
   inkscape:version="0.48.4 r9939"
   sodipodi:docname="logo.svg">
  <metadata
     id="metadata3116">
    <rdf:RDF>
      <cc:Work
         rdf:about="">
        <dc:format>image/svg+xml</dc:format>
        <dc:type
           rdf:resource="http://purl.org/dc/dcmitype/StillImage" />
        <dc:title></dc:title>
      </cc:Work>
    </rdf:RDF>
  </metadata>
  <defs
     id="defs3114" />
  <sodipodi:namedview
     pagecolor="#ffffff"
     bordercolor="#666666"
     borderopacity="1"
     objecttolerance="10"
     gridtolerance="10"
     guidetolerance="10"
     inkscape:pageopacity="0"
     inkscape:pageshadow="2"
     inkscape:window-width="1535"
     inkscape:window-height="876"
     id="namedview3112"
     showgrid="false"
     inkscape:zoom="1.498"
     inkscape:cx="132.51001"
     inkscape:cy="250"
     inkscape:window-x="65"
     inkscape:window-y="24"
     inkscape:window-maximized="1"
     inkscape:current-layer="g3090" />
  <g
     transform="scale(1,-1) translate(0,-500)"
     id="g3090">
    <path
       d="M 22.187103 469.786453 L 459.411133 469.786453 C 459.411133 222.822387 263.659267 22.618454 22.187103 22.618454 Z"
       transform="scale(0.500000,0.500000) translate(479.000000,29.000000)"
       id="path3092"
       style="fill:#8b1e9e;fill-opacity:1"
       fill="#5a0046"
       opacity="1.000000" />
    <path
       d="M 33.979800 3.270900 L 45.698800 3.725900 L 57.340300 4.479800 L 68.900800 5.528800 L 80.376800 6.869400 L 91.764600 8.497800 L 103.060600 10.410400 L 114.261400 12.603400 L 125.363300 15.073300 L 136.362700 17.816300 L 147.256000 20.828900 L 158.039700 24.107200 L 168.710200 27.647600 L 179.263900 31.446600 L 189.697200 35.500300 L 200.006600 39.805100 L 210.188400 44.357400 L 220.239100 49.153500 L 230.155100 54.189600 L 239.932900 59.462200 L 249.568800 64.967600 L 259.059200 70.702000 L 268.400600 76.661900 L 277.589500 82.843500 L 286.622100 89.243200 L 295.495000 95.857300 L 304.204600 102.682100 L 312.747200 109.714000 L 321.119400 116.949300 L 329.317400 124.384200 L 337.337800 132.015300 L 345.177000 139.838600 L 352.831300 147.850700 L 360.297300 156.047800 L 367.571200 164.426300 L 374.649600 172.982500 L 381.528900 181.712600 L 388.205400 190.613100 L 394.675600 199.680300 L 400.936000 208.910500 L 406.982900 218.300000 L 412.812700 227.845100 L 418.422000 237.542200 L 423.807000 247.387700 L 428.964200 257.377700 L 433.890100 267.508800 L 438.581000 277.777100 L 443.033400 288.179000 L 447.243700 298.710900 L 451.208300 309.369100 L 454.923700 320.149900 L 458.386200 331.049600 L 461.592300 342.064600 L 464.538300 353.191100 L 467.220800 364.425600 L 469.636100 375.764400 L 471.780700 387.203700 L 473.651000 398.739900 L 475.243300 410.369300 L 476.554200 422.088300 L 477.579900 433.893200 L 478.317100 445.780300 L 478.762000 457.745900 L 478.911100 469.786400 L 478.810400 471.780200 L 478.514900 473.716300 L 478.034400 475.585100 L 477.378700 477.376700 L 476.557500 479.081300 L 475.580800 480.689000 L 474.458200 482.190200 L 473.199700 483.575000 L 471.814900 484.833600 L 470.313700 485.956100 L 468.705900 486.932900 L 467.001400 487.754000 L 465.209800 488.409700 L 463.341000 488.890200 L 461.404800 489.185700 L 459.411100 489.286400 L 22.187100 489.286400 L 20.193300 489.185700 L 18.257100 488.890200 L 16.388300 488.409700 L 14.596800 487.754000 L 12.892200 486.932900 L 11.284400 485.956100 L 9.783200 484.833600 L 8.398500 483.575000 L 7.139900 482.190200 L 6.017300 480.689000 L 5.040600 479.081300 L 4.219500 477.376700 L 3.563700 475.585100 L 3.083200 473.716300 L 2.787700 471.780200 L 2.687100 469.786400 L 2.687100 22.618400 L 2.787700 20.624600 L 3.083200 18.688500 L 3.563700 16.819700 L 4.219500 15.028100 L 5.040600 13.323500 L 6.017300 11.715800 L 7.139900 10.214600 L 8.398500 8.829800 L 9.783200 7.571300 L 11.284400 6.448700 L 12.892200 5.471900 L 14.596800 4.650800 L 16.388300 3.995100 L 18.257100 3.514600 L 20.193300 3.219100 L 22.187100 3.118400 Z M 22.187100 469.786400 L 459.411100 469.786400 L 459.268300 458.244800 L 458.842200 446.775200 L 458.136200 435.381100 L 457.153700 424.066100 L 455.898300 412.833600 L 454.373300 401.687100 L 452.582100 390.630300 L 450.528200 379.666500 L 448.215100 368.799300 L 445.646100 358.032200 L 442.824700 347.368700 L 439.754400 336.812300 L 436.438500 326.366600 L 432.880400 316.035000 L 429.083800 305.821200 L 425.051900 295.728400 L 420.788100 285.760400 L 416.296000 275.920600 L 411.579000 266.212500 L 406.640500 256.639600 L 401.483900 247.205400 L 396.112700 237.913500 L 390.530300 228.767400 L 384.740100 219.770500 L 378.745600 210.926400 L 372.550200 202.238700 L 366.157300 193.710700 L 359.570400 185.346000 L 352.792900 177.148200 L 345.828200 169.120700 L 338.679800 161.267100 L 331.351100 153.590900 L 323.845600 146.095500 L 316.166600 138.784500 L 308.317700 131.661500 L 300.302100 124.729800 L 292.123500 117.993100 L 283.785200 111.454800 L 275.290600 105.118500 L 266.643200 98.987700 L 257.846400 93.065800 L 248.903600 87.356400 L 239.818300 81.863000 L 230.594000 76.589200 L 221.234000 71.538300 L 211.741800 66.714000 L 202.120700 62.119800 L 192.374400 57.759100 L 182.506100 53.635500 L 172.519300 49.752400 L 162.417500 46.113500 L 152.204100 42.722200 L 141.882500 39.582000 L 131.456200 36.696400 L 120.928500 34.069000 L 110.302900 31.703300 L 99.583000 29.602700 L 88.772000 27.770800 L 77.873400 26.211100 L 66.890700 24.927100 L 55.827200 23.922300 L 44.686500 23.200300 L 33.472000 22.764500 L 22.187100 22.618400 Z"
       transform="scale(0.500000,0.500000) translate(479.000000,29.000000)"
       id="path3094"
       fill="#ffffff"
       opacity="1.000000" />
    <path
       d="M 22.187103 22.786453 L 22.187103 469.954483 C 263.659284 469.954483 459.411163 269.750537 459.411163 22.786453 Z"
       transform="scale(0.500000,0.500000) translate(479.000000,476.000000)"
       id="path3096"
       style="fill:#ebaf00;fill-opacity:1"
       fill="#ad8100"
       opacity="1.000000" />
    <path
       d="M 461.404900 3.387100 L 463.341000 3.682600 L 465.209800 4.163100 L 467.001400 4.818800 L 468.706000 5.639900 L 470.313700 6.616700 L 471.814900 7.739300 L 473.199700 8.997800 L 474.458300 10.382600 L 475.580800 11.883800 L 476.557600 13.491500 L 477.378700 15.196100 L 478.034400 16.987700 L 478.514900 18.856500 L 478.810400 20.792600 L 478.911100 22.786400 L 478.762000 34.826900 L 478.317100 46.792600 L 477.580000 58.679600 L 476.554200 70.484500 L 475.243300 82.203500 L 473.651000 93.833000 L 471.780800 105.369200 L 469.636200 116.808500 L 467.220900 128.147200 L 464.538400 139.381700 L 461.592300 150.508200 L 458.386200 161.523200 L 454.923700 172.422900 L 451.208400 183.203700 L 447.243700 193.861900 L 443.033400 204.393800 L 438.581000 214.795700 L 433.890100 225.064000 L 428.964200 235.195100 L 423.807000 245.185100 L 418.422000 255.030600 L 412.812800 264.727700 L 406.982900 274.272800 L 400.936000 283.662300 L 394.675700 292.892500 L 388.205400 301.959700 L 381.528900 310.860200 L 374.649600 319.590400 L 367.571200 328.146500 L 360.297300 336.525000 L 352.831300 344.722100 L 345.177000 352.734200 L 337.337800 360.557600 L 329.317400 368.188600 L 321.119400 375.623600 L 312.747200 382.858800 L 304.204600 389.890700 L 295.495000 396.715500 L 286.622100 403.329600 L 277.589500 409.729300 L 268.400700 415.910900 L 259.059200 421.870800 L 249.568800 427.605200 L 239.932900 433.110600 L 230.155200 438.383200 L 220.239100 443.419400 L 210.188400 448.215400 L 200.006600 452.767700 L 189.697200 457.072600 L 179.263900 461.126300 L 168.710200 464.925200 L 158.039700 468.465700 L 147.256000 471.744000 L 136.362700 474.756500 L 125.363300 477.499500 L 114.261400 479.969400 L 103.060700 482.162500 L 91.764600 484.075100 L 80.376800 485.703500 L 68.900800 487.044000 L 57.340300 488.093100 L 45.698800 488.846900 L 33.979800 489.301900 L 22.187100 489.454400 L 20.193300 489.353800 L 18.257100 489.058300 L 16.388300 488.577800 L 14.596800 487.922000 L 12.892200 487.100900 L 11.284400 486.124100 L 9.783200 485.001600 L 8.398500 483.743000 L 7.139900 482.358200 L 6.017300 480.857100 L 5.040600 479.249300 L 4.219500 477.544700 L 3.563700 475.753100 L 3.083200 473.884400 L 2.787700 471.948200 L 2.687100 469.954400 L 2.687100 22.786400 L 2.787700 20.792600 L 3.083200 18.856500 L 3.563700 16.987700 L 4.219500 15.196100 L 5.040600 13.491500 L 6.017300 11.883800 L 7.139900 10.382600 L 8.398500 8.997800 L 9.783200 7.739300 L 11.284400 6.616700 L 12.892200 5.639900 L 14.596800 4.818800 L 16.388300 4.163100 L 18.257100 3.682600 L 20.193300 3.387100 L 22.187100 3.286400 L 459.411100 3.286400 Z M 22.187100 22.786400 L 22.187100 469.954400 L 33.472000 469.808400 L 44.686500 469.372600 L 55.827200 468.650500 L 66.890700 467.645800 L 77.873400 466.361800 L 88.772000 464.802100 L 99.583000 462.970200 L 110.303000 460.869600 L 120.928500 458.503800 L 131.456200 455.876400 L 141.882500 452.990800 L 152.204100 449.850600 L 162.417500 446.459300 L 172.519300 442.820400 L 182.506100 438.937400 L 192.374400 434.813800 L 202.120800 430.453100 L 211.741800 425.858800 L 221.234000 421.034500 L 230.594000 415.983700 L 239.818400 410.709800 L 248.903600 405.216400 L 257.846400 399.507000 L 266.643200 393.585200 L 275.290600 387.454300 L 283.785200 381.118000 L 292.123500 374.579700 L 300.302200 367.843000 L 308.317700 360.911300 L 316.166600 353.788300 L 323.845600 346.477300 L 331.351200 338.981900 L 338.679800 331.305700 L 345.828200 323.452100 L 352.792900 315.424600 L 359.570400 307.226800 L 366.157300 298.862100 L 372.550200 290.334200 L 378.745600 281.646400 L 384.740100 272.802300 L 390.530300 263.805400 L 396.112700 254.659300 L 401.483900 245.367400 L 406.640500 235.933200 L 411.579100 226.360400 L 416.296100 216.652200 L 420.788200 206.812400 L 425.051900 196.844400 L 429.083800 186.751700 L 432.880500 176.537800 L 436.438500 166.206200 L 439.754400 155.760500 L 442.824700 145.204100 L 445.646100 134.540700 L 448.215100 123.773600 L 450.528300 112.906400 L 452.582100 101.942600 L 454.373300 90.885700 L 455.898300 79.739200 L 457.153800 68.506700 L 458.136200 57.191700 L 458.842200 45.797600 L 459.268300 34.328000 L 459.411100 22.786400 Z"
       transform="scale(0.500000,0.500000) translate(479.000000,476.000000)"
       id="path3098"
       fill="#ffffff"
       opacity="1.000000" />
    <path
       d="M 460.187103 469.786453 L 460.187103 22.618454 C 218.714939 22.618454 22.963074 222.822387 22.963074 469.786453 Z"
       transform="scale(0.500000,0.500000) translate(41.000000,29.000000)"
       id="path3100"
       style="fill:#248ec2;fill-opacity:1"
       fill="#001563"
       opacity="1.000000" />
    <path
       d="M 462.180800 3.219100 L 464.117000 3.514600 L 465.985800 3.995100 L 467.777300 4.650800 L 469.481900 5.471900 L 471.089700 6.448700 L 472.590900 7.571300 L 473.975600 8.829800 L 475.234200 10.214600 L 476.356800 11.715800 L 477.333500 13.323500 L 478.154600 15.028100 L 478.810400 16.819700 L 479.290900 18.688500 L 479.586400 20.624600 L 479.687100 22.618400 L 479.687100 469.786400 L 479.586400 471.780200 L 479.290900 473.716300 L 478.810400 475.585100 L 478.154600 477.376700 L 477.333500 479.081300 L 476.356800 480.689000 L 475.234200 482.190200 L 473.975600 483.575000 L 472.590900 484.833600 L 471.089700 485.956100 L 469.481900 486.932900 L 467.777300 487.754000 L 465.985800 488.409700 L 464.117000 488.890200 L 462.180800 489.185700 L 460.187100 489.286400 L 22.963000 489.286400 L 20.969300 489.185700 L 19.033100 488.890200 L 17.164300 488.409700 L 15.372700 487.754000 L 13.668200 486.932900 L 12.060400 485.956100 L 10.559200 484.833600 L 9.174400 483.575000 L 7.915900 482.190200 L 6.793300 480.689000 L 5.816600 479.081300 L 4.995400 477.376700 L 4.339700 475.585100 L 3.859200 473.716300 L 3.563700 471.780200 L 3.463000 469.786400 L 3.612100 457.745900 L 4.057000 445.780300 L 4.794200 433.893200 L 5.819900 422.088300 L 7.130800 410.369300 L 8.723100 398.739900 L 10.593400 387.203700 L 12.738000 375.764400 L 15.153300 364.425600 L 17.835800 353.191100 L 20.781800 342.064600 L 23.987900 331.049600 L 27.450400 320.149900 L 31.165800 309.369100 L 35.130400 298.710900 L 39.340700 288.179000 L 43.793100 277.777100 L 48.484000 267.508800 L 53.409900 257.377700 L 58.567100 247.387700 L 63.952200 237.542200 L 69.561400 227.845100 L 75.391200 218.300000 L 81.438100 208.910500 L 87.698500 199.680300 L 94.168700 190.613100 L 100.845200 181.712600 L 107.724500 172.982500 L 114.802900 164.426300 L 122.076900 156.047800 L 129.542800 147.850700 L 137.197100 139.838600 L 145.036300 132.015300 L 153.056700 124.384200 L 161.254800 116.949300 L 169.626900 109.714000 L 178.169500 102.682100 L 186.879100 95.857300 L 195.752000 89.243200 L 204.784600 82.843500 L 213.973500 76.661900 L 223.314900 70.702000 L 232.805300 64.967600 L 242.441200 59.462200 L 252.219000 54.189600 L 262.135000 49.153500 L 272.185700 44.357400 L 282.367500 39.805100 L 292.676900 35.500300 L 303.110200 31.446600 L 313.663900 27.647600 L 324.334400 24.107200 L 335.118100 20.828900 L 346.011400 17.816300 L 357.010800 15.073300 L 368.112700 12.603400 L 379.313500 10.410400 L 390.609500 8.497800 L 401.997300 6.869400 L 413.473300 5.528800 L 425.033800 4.479800 L 436.675400 3.725900 L 448.394300 3.270900 L 460.187100 3.118400 Z M 448.902100 22.764500 L 437.687600 23.200300 L 426.546900 23.922300 L 415.483400 24.927100 L 404.500700 26.211100 L 393.602100 27.770800 L 382.791100 29.602700 L 372.071200 31.703300 L 361.445600 34.069000 L 350.918000 36.696400 L 340.491600 39.582000 L 330.170000 42.722200 L 319.956600 46.113500 L 309.854800 49.752400 L 299.868000 53.635500 L 289.999700 57.759100 L 280.253400 62.119800 L 270.632400 66.714000 L 261.140100 71.538300 L 251.780100 76.589200 L 242.555800 81.863000 L 233.470500 87.356400 L 224.527700 93.065800 L 215.730900 98.987700 L 207.083500 105.118500 L 198.588900 111.454800 L 190.250600 117.993100 L 182.072000 124.729800 L 174.056500 131.661500 L 166.207500 138.784500 L 158.528500 146.095500 L 151.023000 153.590900 L 143.694300 161.267100 L 136.545900 169.120700 L 129.581200 177.148200 L 122.803700 185.346000 L 116.216800 193.710700 L 109.824000 202.238700 L 103.628500 210.926400 L 97.634000 219.770500 L 91.843800 228.767400 L 86.261400 237.913500 L 80.890200 247.205400 L 75.733600 256.639600 L 70.795100 266.212500 L 66.078100 275.920600 L 61.586000 285.760400 L 57.322300 295.728400 L 53.290300 305.821200 L 49.493700 316.035000 L 45.935700 326.366600 L 42.619800 336.812300 L 39.549400 347.368700 L 36.728000 358.032200 L 34.159000 368.799300 L 31.845900 379.666500 L 29.792000 390.630300 L 28.000800 401.687100 L 26.475800 412.833600 L 25.220400 424.066100 L 24.237900 435.381100 L 23.531900 446.775200 L 23.105800 458.244800 L 22.963000 469.786400 L 460.187100 469.786400 L 460.187100 22.618400 Z"
       transform="scale(0.500000,0.500000) translate(41.000000,29.000000)"
       id="path3102"
       fill="#ffffff"
       opacity="1.000000" />
    <path
       d="M 460.187103 22.786453 L 22.963074 22.786453 C 22.963074 269.750520 218.714939 469.954453 460.187103 469.954453 Z"
       transform="scale(0.500000,0.500000) translate(41.000000,476.000000)"
       id="path3104"
       style="fill:#006d0e;fill-opacity:1"
       fill="#005c0c"
       opacity="1.000000" />
    <path
       d="M 462.180800 3.387100 L 464.117000 3.682600 L 465.985800 4.163100 L 467.777300 4.818800 L 469.481900 5.639900 L 471.089700 6.616700 L 472.590900 7.739300 L 473.975600 8.997800 L 475.234200 10.382600 L 476.356800 11.883800 L 477.333500 13.491500 L 478.154600 15.196100 L 478.810400 16.987700 L 479.290900 18.856500 L 479.586400 20.792600 L 479.687100 22.786400 L 479.687100 469.954400 L 479.586400 471.948200 L 479.290900 473.884300 L 478.810400 475.753100 L 478.154600 477.544700 L 477.333500 479.249300 L 476.356800 480.857000 L 475.234200 482.358200 L 473.975600 483.743000 L 472.590900 485.001600 L 471.089700 486.124100 L 469.481900 487.100900 L 467.777300 487.922000 L 465.985800 488.577700 L 464.117000 489.058200 L 462.180800 489.353700 L 460.187100 489.454400 L 448.394300 489.301900 L 436.675400 488.846900 L 425.033800 488.093000 L 413.473300 487.044000 L 401.997300 485.703400 L 390.609500 484.075000 L 379.313500 482.162500 L 368.112700 479.969400 L 357.010800 477.499500 L 346.011400 474.756500 L 335.118100 471.744000 L 324.334400 468.465600 L 313.663900 464.925200 L 303.110200 461.126200 L 292.676900 457.072500 L 282.367500 452.767700 L 272.185700 448.215400 L 262.135000 443.419300 L 252.219000 438.383200 L 242.441200 433.110600 L 232.805300 427.605200 L 223.314900 421.870800 L 213.973500 415.910900 L 204.784600 409.729300 L 195.752000 403.329600 L 186.879100 396.715500 L 178.169500 389.890700 L 169.626900 382.858800 L 161.254800 375.623500 L 153.056700 368.188600 L 145.036300 360.557600 L 137.197100 352.734200 L 129.542800 344.722100 L 122.076900 336.525000 L 114.802900 328.146500 L 107.724500 319.590300 L 100.845200 310.860200 L 94.168700 301.959700 L 87.698500 292.892500 L 81.438100 283.662300 L 75.391200 274.272800 L 69.561400 264.727700 L 63.952200 255.030600 L 58.567100 245.185100 L 53.409900 235.195100 L 48.484000 225.064000 L 43.793100 214.795700 L 39.340700 204.393800 L 35.130400 193.861900 L 31.165800 183.203700 L 27.450400 172.422900 L 23.987900 161.523200 L 20.781800 150.508200 L 17.835800 139.381700 L 15.153300 128.147200 L 12.738000 116.808500 L 10.593400 105.369200 L 8.723100 93.832900 L 7.130800 82.203500 L 5.819900 70.484500 L 4.794200 58.679600 L 4.057000 46.792500 L 3.612100 34.826900 L 3.463000 22.786400 L 3.563700 20.792600 L 3.859200 18.856500 L 4.339700 16.987700 L 4.995400 15.196100 L 5.816600 13.491500 L 6.793300 11.883800 L 7.915900 10.382600 L 9.174400 8.997800 L 10.559200 7.739300 L 12.060400 6.616700 L 13.668200 5.639900 L 15.372700 4.818800 L 17.164300 4.163100 L 19.033100 3.682600 L 20.969300 3.387100 L 22.963000 3.286400 L 460.187100 3.286400 Z M 22.963000 22.786400 L 23.105800 34.328000 L 23.531900 45.797600 L 24.237900 57.191700 L 25.220400 68.506700 L 26.475800 79.739200 L 28.000800 90.885700 L 29.792000 101.942600 L 31.845900 112.906400 L 34.159000 123.773600 L 36.728000 134.540700 L 39.549400 145.204100 L 42.619800 155.760500 L 45.935700 166.206200 L 49.493700 176.537800 L 53.290300 186.751700 L 57.322300 196.844400 L 61.586000 206.812400 L 66.078100 216.652200 L 70.795100 226.360300 L 75.733600 235.933200 L 80.890200 245.367400 L 86.261400 254.659300 L 91.843800 263.805400 L 97.634000 272.802300 L 103.628500 281.646400 L 109.824000 290.334100 L 116.216800 298.862100 L 122.803700 307.226800 L 129.581200 315.424600 L 136.545900 323.452100 L 143.694300 331.305700 L 151.023000 338.981900 L 158.528500 346.477300 L 166.207500 353.788300 L 174.056500 360.911300 L 182.072000 367.843000 L 190.250600 374.579700 L 198.588900 381.118000 L 207.083500 387.454300 L 215.730900 393.585100 L 224.527700 399.507000 L 233.470500 405.216400 L 242.555800 410.709800 L 251.780100 415.983600 L 261.140100 421.034500 L 270.632400 425.858800 L 280.253400 430.453000 L 289.999700 434.813700 L 299.868000 438.937300 L 309.854800 442.820400 L 319.956600 446.459300 L 330.170000 449.850600 L 340.491600 452.990800 L 350.918000 455.876400 L 361.445600 458.503800 L 372.071200 460.869500 L 382.791100 462.970100 L 393.602100 464.802000 L 404.500700 466.361700 L 415.483400 467.645700 L 426.546900 468.650500 L 437.687600 469.372600 L 448.902100 469.808400 L 460.187100 469.954400 L 460.187100 22.786400 Z"
       transform="scale(0.500000,0.500000) translate(41.000000,476.000000)"
       id="path3106"
       fill="#ffffff"
       opacity="1.000000" />
    <path
       d="M 699.572449 359.786453 C 699.572449 555.915446 544.042732 714.909409 352.187103 714.909409 C 160.331475 714.909409 4.801758 555.915446 4.801758 359.786453 C 4.801758 163.657461 160.331475 4.663498 352.187103 4.663498 C 544.042732 4.663498 699.572449 163.657461 699.572449 359.786453 Z"
       transform="scale(0.500000,0.500000) translate(149.000000,139.000000)"
       id="path3108"
       fill="#ffffff"
       opacity="1.000000" />
    <path
       d="M 248.868962 489.325906 Q 272.891917 489.325906 297.530846 487.016007 Q 322.169775 484.706107 348.348636 480.394295 Q 374.527498 476.082482 396.702533 470.538723 Q 418.877569 464.994964 437.356766 457.911272 L 385.615016 309.769714 Q 361.284074 342.416295 331.409373 360.433511 Q 301.534672 378.450728 268.888091 378.450728 Q 249.484935 378.450728 240.861310 370.597069 Q 232.237685 362.743411 232.237685 351.039920 Q 232.237685 339.952402 249.022955 329.788844 Q 265.808225 319.625286 300.918699 306.381862 Q 392.390721 272.811322 419.185556 239.548768 Q 445.364417 206.902188 445.364417 158.856277 Q 445.364417 84.015531 388.540888 44.131266 Q 331.717359 4.247000 219.302248 4.247000 Q 160.784792 4.247000 108.119083 12.254652 Q 55.453373 20.262304 4.635583 39.665460 L 55.453373 196.738630 Q 77.012435 162.860103 109.967002 142.225000 Q 142.613583 121.589898 173.104257 121.589898 Q 188.195600 121.589898 198.205165 129.135569 Q 208.214730 136.681241 208.214730 148.076746 Q 208.214730 161.628156 194.201339 171.637721 Q 180.187949 181.647286 150.621234 193.042790 Q 77.936395 220.453598 50.833574 252.484205 Q 24.038739 284.822799 24.038739 331.636763 Q 24.038739 410.173348 80.708275 449.749627 Q 137.377810 489.325906 248.868962 489.325906 Z"
       transform="scale(0.500000,0.500000) translate(275.000000,252.000000)"
       id="path3110"
       fill="#000000"
       opacity="1.000000" />
  </g>
</svg>
